<svg xmlns="http://www.w3.org/2000/svg" width="12" height="12" viewBox="0 0 12 12"><path d="M11.9 3c-0.1-0.1-0.2-0.2-0.3-0.2H9.2V4.1c0 0.6-0.5 1-1.1 1 -0.6 0-1.1-0.5-1.1-1V2.9H4.9V4.1c0 0.6-0.5 1-1.1 1 -0.6 0-1.1-0.5-1.1-1V2.9H0.4c-0.1 0-0.2 0.1-0.3 0.2C0 3.1 0 3.2 0 3.4l0.8 7.1c0 0.8 0.6 1.5 1.4 1.5h7.6c0.8 0 1.4-0.6 1.4-1.5l0.8-7.1C12 3.2 11.9 3.1 11.9 3z"/><path d="M3.8 4.5c0.2 0 0.4-0.2 0.4-0.4V1.8c0-0.6 0.7-1 1.3-1h1.1c0.7 0 1.1 0.4 1.1 1v2.3c0 0.2 0.2 0.4 0.4 0.4 0.2 0 0.4-0.2 0.4-0.4V1.8C8.6 0.8 7.8 0 6.6 0H5.6C4.4 0 3.4 0.8 3.4 1.8v2.3C3.4 4.3 3.6 4.5 3.8 4.5z"/></svg>
