<svg xmlns="http://www.w3.org/2000/svg" width="156" height="188" viewBox="0 0 156 188"><style>.a{fill:#FFF;}.b{fill:#3A3A3A;}</style><circle cx="141.3" cy="68.9" r="14.8" class="a"/><path d="M89.1 139.5l-7.1 17.9 -22.8 14.9c-2.2 1.2-3.6 3.6-3.6 6.2 0 4 3.2 7.2 7.2 7.2 1.5 0 3-0.5 4.1-1.3 3.8-2.4 22.4-14.1 25.5-15.9 3.5-2 4.1-5.1 4.1-5.1l4.9-16c0 0 0 0-5.7-2.6S89.1 139.5 89.1 139.5z" class="a"/><path d="M139.3 141.5c0 0-1.2-3.8-4.6-5.2s-18.1-7.7-18.1-7.7l15.4-25.6c0 0 3.8-9-0.3-13.4s-13.7-9.7-13.7-9.7h-7.5l15.8-26.8c3.4-5.7 1.4-13.1-4.2-16.4L72.6 7.4c-5.7-3.4-13.1-1.4-16.4 4.2L9.1 91.5c-3.4 5.7-1.4 13.1 4.2 16.4l49.4 29.1c5.7 3.4 13.1 1.4 16.4-4.2l22.9-38.9h8.1l-14.7 26.2c0 0-5.1 9.2-0.3 14.3 4.2 4.4 12.7 6.9 12.7 6.9l17.3 6.5 5.1 31.3 0 0c0.5 3.4 3.5 6 7.1 6 4 0 7.2-3.2 7.2-7.2 0-0.2 0-0.4 0-0.6l0 0L139.3 141.5zM18 100.2c-1.4-0.8-1.9-2.7-1.1-4.1l47.1-79.8c0.8-1.4 2.7-1.9 4.1-1.1l11.5 6.8 -50.1 85L18 100.2zM71.5 128.3c-0.8 1.4-2.7 1.9-4.1 1.1l-30.1-17.8 50.1-85 30.1 17.8c1.4 0.8 1.9 2.7 1.1 4.1l-18.5 31.4h-8.8L71.3 94.2c-0.4 0.3-0.9 0.6-1.2 0.9l0 0 0 0c-1.4 1.3-2.4 3.2-2.4 5.3 0 4 3.2 7.2 7.2 7.2 1.5 0 3-0.5 4.1-1.3l0 0 0.1-0.1c0.2-0.1 0.4-0.3 0.5-0.4l9.7-7.8L71.5 128.3z" class="a"/><path d="M49.2 5.9L2.2 85.8c-3.4 5.7-1.4 13.1 4.2 16.4l49.4 29.1c5.7 3.4 13.1 1.4 16.4-4.2l47.1-79.8c3.4-5.7 1.4-13.1-4.2-16.4L65.7 1.7C60-1.7 52.6 0.3 49.2 5.9zM9.9 90.3l47.1-79.8c0.8-1.4 2.7-1.9 4.1-1.1l11.5 6.8 -50.1 85 -11.5-6.8C9.6 93.6 9.1 91.7 9.9 90.3zM111.5 42.7l-47.1 79.8c-0.8 1.4-2.7 1.9-4.1 1.1l-30.1-17.8 50.1-85 30.1 17.8C111.9 39.4 112.4 41.3 111.5 42.7z" fill="#F0C42E"/><circle cx="135.3" cy="63.1" r="14.8" class="b"/><path d="M81.9 133.8l-7.1 17.9 -22.8 14.9c-2.2 1.2-3.6 3.6-3.6 6.2 0 4 3.2 7.2 7.2 7.2 1.5 0 3-0.5 4.1-1.3 3.8-2.4 22.4-14.1 25.5-15.9 3.5-2 4.1-5.1 4.1-5.1l4.9-16c0 0 0 0-5.7-2.6S81.9 133.8 81.9 133.8z" class="b"/><path d="M132.1 135.7c0 0-1.2-3.8-4.6-5.2s-18.1-7.7-18.1-7.7l15.4-25.6c0 0 3.8-9-0.3-13.4S110.8 74 110.8 74H84L64.1 88.4c-0.4 0.3-0.9 0.6-1.2 0.9l0 0 0 0c-1.4 1.3-2.4 3.2-2.4 5.3 0 4 3.2 7.2 7.2 7.2 1.5 0 3-0.5 4.1-1.3l0 0 0.1-0.1c0.2-0.1 0.4-0.3 0.5-0.4l14.7-11.9H103l-14.7 26.2c0 0-5.1 9.2-0.3 14.3 4.2 4.4 12.7 6.9 12.7 6.9l17.3 6.5 5.1 31.3 0 0c0.5 3.4 3.5 6 7.1 6 4 0 7.2-3.2 7.2-7.2 0-0.2 0-0.4 0-0.6l0 0L132.1 135.7z" class="b"/></svg>
