<svg xmlns="http://www.w3.org/2000/svg" width="136" height="164" viewBox="0 0 136 164"><style>.a{fill:#FFF;}.b{fill:#3A3A3A;}.c{fill:#F0C52E;}</style><path d="M93.1 38.8c8.1 0 14.9-5.5 16.9-13l5.5 0.8c0.1 0 0.2 0 0.3 0 1.1 0 2-0.8 2.1-1.8 0.2-1.2-0.6-2.3-1.8-2.5l-5.5-0.8c0 0 0-0.1 0-0.1 0-0.2 0-0.4 0-0.5 0 0-0.5-6.5-1.1-9.2 -0.6-2.7-2.5-3.3-2.5-3.3C97.2 6 87.2 5.8 84.6 5.8s-3.2 1.3-3.2 1.3l-3.1 5 0 0c-0.1 0.1-0.1 0.2-0.2 0.4l0 0v0c-1.5 2.6-2.4 5.6-2.4 8.8C75.7 30.9 83.5 38.8 93.1 38.8z" class="a"/><path d="M131.5 78.1v0l-26.7-2.2 -9.2-21.1c0 0-0.5-2.8-6-8.5 -5.5-5.7-16.8-3.4-16.8-3.4s-23.9 4.5-31.7 6.3c-7.9 1.9-8.2 9.9-8.2 9.9l-0.6 4.5 -15.2-2.9c-0.2 0-0.4-0.1-0.6-0.1 -1.4 0-2.7 1-2.9 2.4L6.1 101.3c-0.3 1.6 0.8 3.2 2.4 3.5l51.2 9.9c0.1 0 0.2 0 0.3 0 0 0 0 0 0 0 -0.7 0.1-1.3 0-1.3 0l-9.4-1.8 -3.1 17.1 -23.6 20.4c-1.7 1.4-2.8 3.5-2.8 5.8 0 4.1 3.3 7.4 7.4 7.4 2 0 3.9-0.8 5.2-2.1 0 0 27.7-22 29.6-23.6 1.9-1.5 2.8-3.9 2.8-3.9s4.5-13.9 5.8-16.9c0.8-2 4.9-1.1 4.9-1.1l22.9 8.6 7.6 29.1c0.1 0.6 0.2 1.2 0.5 1.8h0c1.1 2.7 3.8 4.7 6.9 4.7 4.1 0 7.4-3.3 7.4-7.4 0-0.6-0.1-1.2-0.2-1.7 -0.8-5-4.6-27-5.6-31.8 -1.1-5.4-4.6-6.9-4.6-6.9s-21.3-11.6-22.7-12.3c-1.4-0.8-1.1-2.8-1.1-2.8l3.9-14.3 2.8 5.9c0 0 1.6 3.3 4.1 3.4l33.4 0.8c4.1 0 7.4-3.3 7.4-7.4C138.3 81.6 135.3 78.4 131.5 78.1zM60.1 62.8l-1.8 5.9 9.9 1.9 -20.2-3.9 0.5-2.5L60.1 62.8zM57.9 108.3l-45.3-8.8 6.3-32.4 12.5 2.4 -1.6 11.6 -0.6 4.4c0 0 0 0.1 0 0.1l0 0.1h0c0 0.3-0.1 0.6-0.1 1 0 4.1 3.3 7.4 7.4 7.4 4.1 0 7.4-3.3 7.4-7.4 0-0.3 0-0.6-0.1-0.9l2.9-13.2 17.4 3.4L57.9 108.3z" class="a"/><path d="M25.1 17h38c1.1 0 2-0.9 2-2 0-1.1-0.9-2-2-2H25.1c-1.1 0-2 0.9-2 2C23.1 16.1 24 17 25.1 17z" class="a"/><path d="M38.1 23c-1.1 0-2 0.9-2 2 0 1.1 0.9 2 2 2h23c1.1 0 2-0.9 2-2 0-1.1-0.9-2-2-2H38.1z" class="a"/><path d="M87.1 32.7c8.1 0 14.9-5.5 16.9-13l5.5 0.8c0.1 0 0.2 0 0.3 0 1.1 0 2-0.8 2.1-1.8 0.2-1.2-0.6-2.3-1.8-2.5l-5.5-0.8c0 0 0-0.1 0-0.1 0-0.2 0-0.4 0-0.5 0 0-0.5-6.5-1.1-9.2 -0.6-2.7-2.5-3.3-2.5-3.3C91.2 0 81.2-0.2 78.6-0.2s-3.2 1.3-3.2 1.3l-3.1 5 0 0C72.2 6.2 72.1 6.3 72 6.4L72 6.5v0c-1.5 2.6-2.4 5.6-2.4 8.8C69.6 24.9 77.5 32.7 87.1 32.7z" class="b"/><path d="M125.5 72v0l-26.7-2.2 -9.2-21.1c0 0-0.5-2.8-6-8.5 -5.5-5.7-16.8-3.4-16.8-3.4S42.8 41.4 35 43.2c-7.9 1.9-8.2 9.9-8.2 9.9l-3.1 22 -0.6 4.4c0 0 0 0.1 0 0.1l0 0.1h0c0 0.3-0.1 0.6-0.1 1 0 4.1 3.3 7.4 7.4 7.4 4.1 0 7.4-3.3 7.4-7.4 0-0.3 0-0.6-0.1-0.9l4.7-21.6 11.6-1.4 -1.8 5.9 9.9 1.9c1.6 0.3 2.7 1.9 2.4 3.5l-7.4 38.2c-0.3 1.4-1.5 2.4-2.9 2.4 -0.1 0-0.1 0-0.2 0 -0.7 0.1-1.3 0-1.3 0l-9.4-1.8 -3.1 17.1 -23.6 20.4c-1.7 1.4-2.8 3.5-2.8 5.8 0 4.1 3.3 7.4 7.4 7.4 2 0 3.9-0.8 5.2-2.1 0 0 27.7-22 29.6-23.6 1.9-1.5 2.8-3.9 2.8-3.9s4.5-13.9 5.8-16.9c0.8-2 4.9-1.1 4.9-1.1l22.9 8.6 7.6 29.1c0.1 0.6 0.2 1.2 0.5 1.8h0c1.1 2.7 3.8 4.7 6.9 4.7 4.1 0 7.4-3.3 7.4-7.4 0-0.6-0.1-1.2-0.2-1.7 -0.8-5-4.6-27-5.6-31.8 -1.1-5.4-4.6-6.9-4.6-6.9S83.2 94.7 81.8 93.9c-1.4-0.8-1.1-2.8-1.1-2.8l3.9-14.3 2.8 5.9c0 0 1.6 3.3 4.1 3.4l33.4 0.8c4.1 0 7.4-3.3 7.4-7.4C132.3 75.6 129.3 72.4 125.5 72z" class="b"/><path d="M54 108.7c0 0 0 0 0 0 0.1 0 0.1 0 0.2 0 1.4 0 2.7-1 2.9-2.4l7.4-38.2c0.3-1.6-0.8-3.2-2.4-3.5l-20.2-3.9 -1.3 5.9 17.4 3.4 -6.3 32.4L6.5 93.5l6.3-32.4 12.5 2.4 0.8-5.9L11 54.7c-0.2 0-0.4-0.1-0.6-0.1 -1.4 0-2.7 1-2.9 2.4L0.1 95.3c-0.3 1.6 0.8 3.2 2.4 3.5l51.2 9.9C53.7 108.7 53.9 108.7 54 108.7z" fill="#F0C42E"/><path d="M59 9c0 1.1-0.9 2-2 2H19c-1.1 0-2-0.9-2-2 0-1.1 0.9-2 2-2h38C58.1 7 59 7.9 59 9z" class="c"/><path d="M57 19c0 1.1-0.9 2-2 2H32c-1.1 0-2-0.9-2-2 0-1.1 0.9-2 2-2h23C56.1 17 57 17.9 57 19z" class="c"/></svg>
