<svg xmlns="http://www.w3.org/2000/svg" width="27" height="34" viewBox="0 0 26.9 34.1"><path d="M13.6 0L13.5 0 0 1.4v24.7l13.5 8 13.4-8 0 0V1.4L13.6 0zM25 12.1L13.5 5.3 13.5 5.2l-0.1 0.1 -0.1-0.1v0.1L1.9 12.1V3.1l11.5-1.2 11.5 1.2V12.1zM13.4 6.8L24.9 13.5l-4.5 2.6 -7.1-4.2 0 1.4 5.9 3.5 -0.9 0.5 -5-3 0 1.4 3.8 2.3 -0.8 0.5 -3-1.8 0 1.4 1.9 1.1 -1.8 1.1L2 13.6 13.4 6.8zM1.9 15.1l11.4 6.8 0 1L5.4 18.2 5.4 19.7l8 4.8 0 1.1 -8-4.7 0 1.4 8 4.8 0 0 8.1-4.9 0-5.2 3.4-2v10L13.5 31.9 1.9 25V15.1z"/></svg>
