<svg xmlns="http://www.w3.org/2000/svg" width="86" height="117" viewBox="0 0 86 117"><style>.a{fill:#363636;}</style><path d="M82.8 4H3.3c-1.8 0-3.2 1.4-3.2 3.2v46.4c0 1.8 1.4 3.2 3.2 3.2h79.5c1.8 0 3.2-1.4 3.2-3.2V7.2C86 5.4 84.6 4 82.8 4zM8.4 37.2H8.2c-1.8 0-3.2-1.4-3.2-3.2v-7.3c0-1.8 1.4-3.2 3.2-3.2h0.2V37.2zM69.6 52.4H13.3V8.4h56.3V52.4zM78.4 34.6c-2.3 0-4.1-1.9-4.1-4.1s1.9-4.1 4.1-4.1c2.3 0 4.1 1.9 4.1 4.1S80.7 34.6 78.4 34.6z" class="a"/><rect x="31.5" width="23.2" height="2.8" class="a"/><path d="M46.6 64.9v-3h8v-2.8H31.5v2.8h8v35.2c-2.1 0.9-3.6 3.1-3.6 5.6V117h14.3v-14.3c0-2.5-1.5-4.6-3.6-5.6v-28h4.8l5.1 1.2v-6.7l-5.1 1.2H46.6z" class="a"/></svg>
