<svg xmlns="http://www.w3.org/2000/svg" width="56" height="98" viewBox="0 0 56 98"><style>.a{fill:#363636;}</style><path d="M54.5 32.2h-1.5v-4.6c0-5.1-4.1-9.2-9.1-9.2H9.1C4.1 18.4 0 22.5 0 27.6v42.9c0 5.1 4.1 9.2 9.1 9.2h34.8c5 0 9.1-4.1 9.1-9.2V67h1.5c0.4 0 0.8-0.3 0.8-0.8V52.5c0-0.4-0.3-0.8-0.8-0.8h-1.5v-8.8h1.5c0.8 0 1.5-0.7 1.5-1.5v-7.7C56 32.9 55.3 32.2 54.5 32.2zM34.1 29.1c2.9 0 5.3 2.4 5.3 5.4s-2.4 5.4-5.3 5.4 -5.3-2.4-5.3-5.4S31.2 29.1 34.1 29.1zM18.9 29.1c2.9 0 5.3 2.4 5.3 5.4s-2.4 5.4-5.3 5.4c-2.9 0-5.3-2.4-5.3-5.4S16 29.1 18.9 29.1zM5.3 49.4c0-3 2.4-5.4 5.3-5.4 2.9 0 5.3 2.4 5.3 5.4 0 3-2.4 5.4-5.3 5.4C7.7 54.8 5.3 52.4 5.3 49.4zM18.9 68.9c-2.9 0-5.3-2.4-5.3-5.4s2.4-5.4 5.3-5.4c2.9 0 5.3 2.4 5.3 5.4S21.9 68.9 18.9 68.9zM20.4 49c0-3.4 2.7-6.1 6.1-6.1 3.3 0 6.1 2.7 6.1 6.1s-2.7 6.1-6.1 6.1C23.1 55.1 20.4 52.4 20.4 49zM34.1 68.9c-2.9 0-5.3-2.4-5.3-5.4s2.4-5.4 5.3-5.4 5.3 2.4 5.3 5.4S37 68.9 34.1 68.9zM42.4 54.8c-2.9 0-5.3-2.4-5.3-5.4 0-3 2.4-5.4 5.3-5.4 2.9 0 5.3 2.4 5.3 5.4C47.7 52.4 45.3 54.8 42.4 54.8z" class="a"/><path d="M9.6 15.3h33.7c0.8 0 1.4-0.7 1.3-1.5L43 3c0 0 0 0 0 0C42.8 1.4 41.2 0 39.5 0H13.5c-1.7 0-3.3 1.4-3.5 3L8.3 13.8C8.2 14.6 8.8 15.3 9.6 15.3z" class="a"/><path d="M43.3 82.7H9.6c-0.8 0-1.4 0.7-1.3 1.5l1.6 10.8c0.3 1.7 1.8 3 3.5 3h26c1.7 0 3.3-1.4 3.5-3 0 0 0 0 0 0l1.6-10.8C44.8 83.4 44.2 82.7 43.3 82.7z" class="a"/></svg>
