<svg xmlns="http://www.w3.org/2000/svg" width="97" height="55" viewBox="0 0 97 55"><style>.a{fill:#363636;}</style><path d="M84.1 32.6V20c0-1.3 1-2.4 2.3-2.4l8.3 1.6V11c0-2.4-1.7-3.4-4.2-4.3l-23.2-6.6c1.6 1.4 1.9 2 1.9 4.4v45.2c0 2.4-0.4 4.1-2 5.2l23.3-7.1c2.4-0.8 4.2-4.2 4.2-6.6V33.4l-8.3 1.6C85.2 35 84.1 33.9 84.1 32.6z" class="a"/><path d="M95.1 21l-7.6-1.4c-1 0-1.8 0.8-1.8 1.9v9.9c0 1 0.8 1.9 1.8 1.9l7.6-1.4c1.2-0.4 1.8-0.8 1.8-1.9V22.8C97 21.8 96.2 21.3 95.1 21z" class="a"/><path d="M67.2 4.5c0-5.1-4.2-4.5-4.2-4.5S5.8 4.7 2.8 5.1 0 9.5 0 9.5 0 42.1 0 45.8s2.6 3.8 2.6 3.8l16.5 1.4L27.2 39.3c0 0 1.1-1.8 2.5-1.8 1.4 0 2.4 1.9 2.4 1.9l9.1 13.5c0 0 18.9 1.9 22.5 1.9 3.6 0 3.4-5 3.4-5S67.2 9.6 67.2 4.5zM13 37.2c-3.7 0-6.7-4.6-6.7-10.3s3-10.3 6.7-10.3c3.7 0 6.7 4.6 6.7 10.3S16.7 37.2 13 37.2zM49.1 38.6c-4.7 0-8.4-5.2-8.4-11.7 0-6.5 3.8-11.7 8.4-11.7 4.7 0 8.4 5.2 8.4 11.7C57.6 33.4 53.8 38.6 49.1 38.6z" class="a"/></svg>
